<svg width="128" height="128" viewBox="0 0 128 128" fill="none" xmlns="http://www.w3.org/2000/svg">
<path d="M7.95814 53.4208C7.95814 52.5226 8.68565 51.7945 9.58308 51.7945H27.9991C28.8966 51.7945 29.6241 52.5226 29.6241 53.4208C29.6241 54.3189 28.8966 55.047 27.9991 55.047H9.58308C8.68565 55.047 7.95814 54.3189 7.95814 53.4208Z" fill="#0085BA"/>
<path d="M2 64.2623C2 63.3642 2.72751 62.6361 3.62495 62.6361H22.041C22.9384 62.6361 23.6659 63.3642 23.6659 64.2623C23.6659 65.1604 22.9384 65.8885 22.041 65.8885H3.62495C2.72751 65.8885 2 65.1604 2 64.2623Z" fill="#0085BA"/>
<path d="M9.58308 73.4776C8.68565 73.4776 7.95814 74.2057 7.95814 75.1038C7.95814 76.002 8.68565 76.7301 9.58308 76.7301H27.9991C28.8966 76.7301 29.6241 76.002 29.6241 75.1038C29.6241 74.2057 28.8966 73.4776 27.9991 73.4776H9.58308Z" fill="#0085BA"/>
<path fill-rule="evenodd" clip-rule="evenodd" d="M75.6074 61.884C75.2783 61.9492 74.933 61.9818 74.5714 61.9818C73.8626 61.9818 73.2146 61.8547 72.6275 61.6006C72.0456 61.3412 71.5405 60.968 71.112 60.481C70.6836 59.994 70.3504 59.4037 70.1123 58.7102C69.8796 58.0168 69.7632 57.2333 69.7632 56.3598V55.7246C69.7632 54.8511 69.8796 54.0703 70.1123 53.3821C70.3451 52.6886 70.673 52.0984 71.0962 51.6114C71.5246 51.1191 72.0298 50.7459 72.6116 50.4918C73.1988 50.2324 73.8467 50.1027 74.5555 50.1027C75.2696 50.1027 75.9202 50.2324 76.5074 50.4918C77.0998 50.7459 77.6076 51.1191 78.0308 51.6114C78.4539 52.0984 78.7792 52.6886 79.0067 53.3821C79.2394 54.0703 79.3558 54.8511 79.3558 55.7246V56.3598C79.3558 57.2333 79.2421 58.0168 79.0146 58.7102C78.7872 59.4037 78.4619 59.994 78.0387 60.481C77.829 60.7224 77.5991 60.9358 77.3491 61.1213L79.332 62.6964L78.0387 63.8319L75.6074 61.884ZM77.3563 55.7087V56.3598C77.3563 57.0057 77.2929 57.5774 77.1659 58.075C77.0443 58.5726 76.8644 58.9935 76.6264 59.3376C76.3884 59.6763 76.0974 59.9331 75.7536 60.1078C75.4098 60.2772 75.0157 60.3619 74.5714 60.3619C74.1377 60.3619 73.7462 60.2772 73.3971 60.1078C73.0533 59.9331 72.7571 59.6763 72.5085 59.3376C72.2652 58.9935 72.08 58.5726 71.9531 58.075C71.8261 57.5774 71.7627 57.0057 71.7627 56.3598V55.7087C71.7627 55.0629 71.8261 54.4938 71.9531 54.0015C72.08 53.5039 72.2652 53.0883 72.5085 52.7548C72.7518 52.416 73.0454 52.1619 73.3892 51.9925C73.733 51.8178 74.1218 51.7305 74.5555 51.7305C74.9999 51.7305 75.3939 51.8178 75.7377 51.9925C76.0869 52.1619 76.3804 52.416 76.6185 52.7548C76.8618 53.0883 77.0443 53.5039 77.1659 54.0015C77.2929 54.4938 77.3563 55.0629 77.3563 55.7087Z" fill="#0085BA"/>
<path d="M86.4168 60.9465C86.1638 61.2574 85.8492 61.5046 85.4731 61.688C85.0606 61.8838 84.566 61.9818 83.9894 61.9818C83.5716 61.9818 83.1881 61.9209 82.839 61.7991C82.4898 61.6774 82.1883 61.4894 81.9344 61.2353C81.6858 60.9812 81.4928 60.6504 81.3552 60.2428C81.2177 59.8352 81.1489 59.3481 81.1489 58.7817V53.2312H83.0611V58.7976C83.0611 59.1099 83.0981 59.372 83.1722 59.5837C83.2462 59.7902 83.3467 59.9569 83.4737 60.084C83.6006 60.211 83.7488 60.301 83.918 60.3539C84.0873 60.4069 84.2671 60.4333 84.4575 60.4333C85.0024 60.4333 85.4308 60.3275 85.7429 60.1157C86.0142 59.9302 86.2178 59.6905 86.3538 59.3967V53.2312H88.274V61.8229H86.4649L86.4168 60.9465Z" fill="#0085BA"/>
<path d="M92.2808 61.8229V53.2312H90.3607V61.8229H92.2808Z" fill="#0085BA"/>
<path d="M90.5194 50.2535C90.3289 50.4441 90.2337 50.685 90.2337 50.9761C90.2337 51.262 90.3289 51.5002 90.5194 51.6908C90.7151 51.8814 90.9848 51.9766 91.3287 51.9766C91.6672 51.9766 91.9343 51.8814 92.13 51.6908C92.3257 51.5002 92.4236 51.262 92.4236 50.9761C92.4236 50.685 92.3257 50.4441 92.13 50.2535C91.9343 50.0577 91.6672 49.9597 91.3287 49.9597C90.9848 49.9597 90.7151 50.0577 90.5194 50.2535Z" fill="#0085BA"/>
<path d="M98.7234 60.2745C98.4748 60.3963 98.1945 60.4572 97.8824 60.4572C97.491 60.4572 97.1683 60.3804 96.9144 60.2269C96.6605 60.0681 96.4595 59.859 96.3114 59.5996C96.1686 59.3349 96.0681 59.0358 96.0099 58.7023C95.9517 58.3688 95.9226 58.0247 95.9226 57.67V57.3921C95.9226 57.0374 95.9517 56.696 96.0099 56.3678C96.0734 56.0343 96.1765 55.7352 96.3193 55.4705C96.4622 55.2005 96.6605 54.9888 96.9144 54.8352C97.1683 54.6764 97.4883 54.597 97.8745 54.597C98.2236 54.597 98.5224 54.6738 98.771 54.8273C99.0249 54.9808 99.2206 55.1873 99.3582 55.4467C99.501 55.7008 99.5803 55.9866 99.5962 56.3043H101.397C101.387 55.6637 101.231 55.1026 100.929 54.6208C100.633 54.1338 100.226 53.7553 99.7073 53.4853C99.1889 53.2101 98.5859 53.0724 97.8983 53.0724C97.2477 53.0724 96.679 53.1863 96.1924 53.4139C95.7058 53.6362 95.3011 53.9459 94.9784 54.3429C94.6558 54.74 94.4125 55.2005 94.2485 55.7246C94.0898 56.2434 94.0105 56.7992 94.0105 57.3921V57.67C94.0105 58.2629 94.0898 58.8188 94.2485 59.3376C94.4125 59.8563 94.6558 60.3142 94.9784 60.7113C95.3011 61.1083 95.7058 61.4206 96.1924 61.6483C96.679 61.8706 97.2503 61.9818 97.9062 61.9818C98.5409 61.9818 99.1201 61.8494 99.6438 61.5847C100.167 61.3148 100.588 60.9521 100.905 60.4969C101.223 60.0416 101.387 59.5361 101.397 58.9802H99.5962C99.5803 59.2714 99.4931 59.5281 99.3344 59.7505C99.181 59.9728 98.9773 60.1475 98.7234 60.2745Z" fill="#0085BA"/>
<path d="M104.793 56.675V49.6262H102.873V61.8229H104.793V59.0094L105.668 58.1137L108.229 61.8229H110.442L106.903 56.8055L110.125 53.2312H107.816L105.388 55.939L104.793 56.675Z" fill="#0085BA"/>
<path fill-rule="evenodd" clip-rule="evenodd" d="M71.7198 77.0011C72.1959 77.0011 72.6259 76.9249 73.0099 76.7724C73.3971 76.6168 73.7304 76.396 74.0097 76.1102C74.2889 75.8211 74.5032 75.4749 74.6523 75.0715C74.8015 74.6682 74.8761 74.2171 74.8761 73.7185V73.3516C74.8761 72.8529 74.8015 72.4019 74.6523 71.9985C74.5032 71.5951 74.2889 71.2489 74.0097 70.9599C73.7335 70.6709 73.4051 70.4501 73.0242 70.2977C72.6434 70.142 72.2228 70.0642 71.7627 70.0642H69.7061V77.0011H71.7198ZM70.901 76.053H71.7198C72.1483 76.053 72.5069 75.9593 72.7957 75.7719C73.0877 75.5845 73.3067 75.3161 73.4527 74.9667C73.6018 74.6173 73.6764 74.2012 73.6764 73.7185V73.3421C73.6764 72.9673 73.6336 72.6354 73.5479 72.3463C73.4654 72.0573 73.3416 71.8143 73.1766 71.6174C73.0147 71.4205 72.8147 71.2712 72.5767 71.1695C72.3419 71.0679 72.0705 71.0171 71.7627 71.0171H70.901V76.053Z" fill="#0085BA"/>
<path fill-rule="evenodd" clip-rule="evenodd" d="M77.1992 76.9106C77.5071 77.0344 77.8514 77.0964 78.2323 77.0964C78.5687 77.0964 78.8639 77.0503 79.1178 76.9582C79.3748 76.8661 79.5922 76.747 79.77 76.6009C79.9477 76.4516 80.0921 76.296 80.2032 76.134L79.5986 75.548C79.4399 75.7512 79.2526 75.9085 79.0368 76.0196C78.821 76.1308 78.5751 76.1864 78.2989 76.1864C78.08 76.1864 77.8848 76.1467 77.7134 76.0673C77.542 75.9847 77.396 75.8719 77.2754 75.729C77.1548 75.5861 77.0628 75.4193 76.9993 75.2288C76.9541 75.0836 76.9259 74.9296 76.9145 74.7666H80.2936V74.2759C80.2936 73.9043 80.2476 73.5644 80.1556 73.2563C80.0667 72.9482 79.9302 72.683 79.7462 72.4607C79.5653 72.2352 79.3367 72.0605 79.0606 71.9366C78.7845 71.8127 78.4624 71.7508 78.0942 71.7508C77.761 71.7508 77.4516 71.8127 77.1659 71.9366C76.8803 72.0605 76.6327 72.2399 76.4233 72.475C76.2138 72.7068 76.0504 72.9863 75.9329 73.3135C75.8155 73.6406 75.7568 74.0059 75.7568 74.4093V74.5999C75.7568 74.9524 75.8139 75.2812 75.9282 75.5861C76.0424 75.891 76.2059 76.1562 76.4185 76.3817C76.6343 76.6072 76.8946 76.7835 77.1992 76.9106ZM76.9384 73.9424C76.9503 73.8544 76.9659 73.7702 76.985 73.6899C77.039 73.4739 77.1151 73.2897 77.2135 73.1372C77.3119 72.9847 77.4341 72.8688 77.5801 72.7894C77.7293 72.7068 77.8991 72.6655 78.0895 72.6655C78.3434 72.6655 78.5465 72.7211 78.6988 72.8323C78.8512 72.9435 78.9638 73.0896 79.0368 73.2706C79.113 73.4517 79.1543 73.6454 79.1606 73.8519V73.9424H76.9384Z" fill="#0085BA"/>
<path d="M82.3359 73.2951V77.0011H81.1886V71.8461H82.2693L82.3062 72.4267C82.4735 72.2154 82.6786 72.052 82.9215 71.9366C83.1785 71.8127 83.4753 71.7508 83.8117 71.7508C84.0466 71.7508 84.2608 71.7857 84.4544 71.8556C84.6511 71.9223 84.8209 72.0287 84.9638 72.1748C85.0699 72.281 85.1576 72.4091 85.2268 72.5589C85.2566 72.5153 85.288 72.473 85.3208 72.4321C85.4922 72.2193 85.7032 72.0525 85.954 71.9318C86.2047 71.8111 86.4919 71.7508 86.8156 71.7508C87.079 71.7508 87.3139 71.7873 87.5202 71.8604C87.7297 71.9302 87.9074 72.0414 88.0534 72.1939C88.1994 72.3463 88.3104 72.5448 88.3866 72.7894C88.4628 73.0308 88.5009 73.323 88.5009 73.6661V77.0011H87.3488V73.6613C87.3488 73.4008 87.3107 73.1991 87.2346 73.0562C87.1616 72.9133 87.0568 72.8148 86.9204 72.7608C86.7839 72.7037 86.6204 72.6751 86.43 72.6751C86.2523 72.6751 86.0952 72.7084 85.9587 72.7751C85.8254 72.8386 85.7128 72.9292 85.6207 73.0467C85.5303 73.1591 85.4613 73.2883 85.4137 73.4344C85.4153 73.4774 85.416 73.5212 85.416 73.566V77.0011H84.2687V73.6661C84.2687 73.4151 84.2306 73.2182 84.1545 73.0753C84.0815 72.9323 83.9751 72.8307 83.8355 72.7704C83.699 72.7068 83.5356 72.6751 83.3452 72.6751C83.1293 72.6751 82.9453 72.7164 82.7929 72.7989C82.6438 72.8815 82.5216 72.9943 82.4264 73.1372C82.3931 73.1871 82.363 73.2397 82.3359 73.2951Z" fill="#0085BA"/>
<path fill-rule="evenodd" clip-rule="evenodd" d="M89.4625 74.3712V74.4808C89.4625 74.8524 89.5165 75.197 89.6244 75.5146C89.7323 75.8322 89.8894 76.1102 90.0957 76.3484C90.302 76.5834 90.5527 76.7676 90.8478 76.901C91.1462 77.0313 91.4842 77.0964 91.8618 77.0964C92.2363 77.0964 92.5712 77.0313 92.8663 76.901C93.1615 76.7676 93.4122 76.5834 93.6185 76.3484C93.8248 76.1102 93.9819 75.8322 94.0898 75.5146C94.1977 75.197 94.2517 74.8524 94.2517 74.4808V74.3712C94.2517 73.9996 94.1977 73.6549 94.0898 73.3373C93.9819 73.0165 93.8248 72.7386 93.6185 72.5036C93.4122 72.2653 93.1599 72.0811 92.8616 71.9509C92.5664 71.8175 92.23 71.7508 91.8523 71.7508C91.4778 71.7508 91.1414 71.8175 90.8431 71.9509C90.5479 72.0811 90.2972 72.2653 90.0909 72.5036C89.8878 72.7386 89.7323 73.0165 89.6244 73.3373C89.5165 73.6549 89.4625 73.9996 89.4625 74.3712ZM90.6098 74.4808V74.3712C90.6098 74.1425 90.6336 73.9265 90.6812 73.7232C90.7288 73.5168 90.8034 73.3341 90.905 73.1753C91.0065 73.0165 91.1351 72.8926 91.2906 72.8037C91.4493 72.7116 91.6365 72.6655 91.8523 72.6655C92.0681 72.6655 92.2538 72.7116 92.4093 72.8037C92.568 72.8926 92.6981 73.0165 92.7997 73.1753C92.9044 73.3341 92.9806 73.5168 93.0282 73.7232C93.079 73.9265 93.1044 74.1425 93.1044 74.3712V74.4808C93.1044 74.7126 93.079 74.9318 93.0282 75.1382C92.9806 75.3447 92.906 75.5257 92.8044 75.6814C92.7029 75.837 92.5728 75.9593 92.4141 76.0482C92.2586 76.1372 92.0745 76.1816 91.8618 76.1816C91.6429 76.1816 91.454 76.1372 91.2953 76.0482C91.1366 75.9593 91.0065 75.837 90.905 75.6814C90.8034 75.5257 90.7288 75.3447 90.6812 75.1382C90.6336 74.9318 90.6098 74.7126 90.6098 74.4808Z" fill="#0085BA"/>
<path d="M99.0313 77.0011V70.0642H97.8364V77.0011H99.0313Z" fill="#0085BA"/>
<path d="M101.55 73.2951V77.0011H100.402V71.8461H101.483L101.52 72.4267C101.687 72.2154 101.892 72.052 102.135 71.9366C102.392 71.8127 102.689 71.7508 103.025 71.7508C103.26 71.7508 103.474 71.7857 103.668 71.8556C103.865 71.9223 104.035 72.0287 104.177 72.1748C104.284 72.281 104.371 72.4091 104.441 72.5589C104.47 72.5153 104.502 72.473 104.535 72.4321C104.706 72.2193 104.917 72.0525 105.168 71.9318C105.418 71.8111 105.706 71.7508 106.029 71.7508C106.293 71.7508 106.528 71.7873 106.734 71.8604C106.943 71.9302 107.121 72.0414 107.267 72.1939C107.413 72.3463 107.524 72.5448 107.6 72.7894C107.677 73.0308 107.715 73.323 107.715 73.6661V77.0011H106.563V73.6613C106.563 73.4008 106.524 73.1991 106.448 73.0562C106.375 72.9133 106.271 72.8148 106.134 72.7608C105.998 72.7037 105.834 72.6751 105.644 72.6751C105.466 72.6751 105.309 72.7084 105.172 72.7751C105.039 72.8386 104.926 72.9292 104.834 73.0467C104.744 73.1591 104.675 73.2883 104.627 73.4344C104.629 73.4774 104.63 73.5212 104.63 73.566V77.0011H103.482V73.6661C103.482 73.4151 103.444 73.2182 103.368 73.0753C103.295 72.9323 103.189 72.8307 103.049 72.7704C102.913 72.7068 102.749 72.6751 102.559 72.6751C102.343 72.6751 102.159 72.7164 102.007 72.7989C101.857 72.8815 101.735 72.9943 101.64 73.1372C101.607 73.1871 101.577 73.2397 101.55 73.2951Z" fill="#0085BA"/>
<path fill-rule="evenodd" clip-rule="evenodd" d="M110.047 76.5214V78.9831H108.9V71.8461H109.957L110.006 72.3832C110.161 72.1913 110.346 72.0408 110.561 71.9318C110.799 71.8111 111.077 71.7508 111.395 71.7508C111.718 71.7508 112.005 71.8143 112.256 71.9414C112.507 72.0652 112.718 72.2431 112.889 72.475C113.061 72.7037 113.189 72.98 113.275 73.304C113.361 73.6248 113.403 73.9821 113.403 74.3759V74.476C113.403 74.8508 113.359 75.1986 113.27 75.5194C113.185 75.837 113.056 76.1149 112.885 76.3531C112.716 76.5882 112.508 76.7708 112.261 76.901C112.013 77.0313 111.728 77.0964 111.404 77.0964C111.083 77.0964 110.803 77.0376 110.561 76.9201C110.365 76.8206 110.194 76.6877 110.047 76.5214ZM110.047 75.5575C110.139 75.7481 110.269 75.9005 110.438 76.0149C110.609 76.126 110.828 76.1816 111.095 76.1816C111.301 76.1816 111.477 76.1372 111.623 76.0482C111.769 75.9593 111.888 75.837 111.98 75.6814C112.075 75.5226 112.145 75.3399 112.19 75.1335C112.234 74.927 112.256 74.7079 112.256 74.476V74.3759C112.256 74.1377 112.234 73.917 112.19 73.7137C112.145 73.5072 112.075 73.3262 111.98 73.1706C111.885 73.0149 111.763 72.8942 111.614 72.8085C111.468 72.7195 111.291 72.6751 111.085 72.6751C110.882 72.6751 110.707 72.71 110.561 72.7799C110.415 72.8466 110.293 72.9403 110.195 73.061C110.138 73.1303 110.089 73.2065 110.047 73.2895V75.5575Z" fill="#0085BA"/>
<path fill-rule="evenodd" clip-rule="evenodd" d="M114.16 74.3712V74.4808C114.16 74.8524 114.214 75.197 114.322 75.5146C114.43 75.8322 114.587 76.1102 114.794 76.3484C115 76.5834 115.251 76.7676 115.546 76.901C115.844 77.0313 116.182 77.0964 116.56 77.0964C116.934 77.0964 117.269 77.0313 117.564 76.901C117.859 76.7676 118.11 76.5834 118.316 76.3484C118.523 76.1102 118.68 75.8322 118.788 75.5146C118.896 75.197 118.95 74.8524 118.95 74.4808V74.3712C118.95 73.9996 118.896 73.6549 118.788 73.3373C118.68 73.0165 118.523 72.7386 118.316 72.5036C118.11 72.2653 117.858 72.0811 117.559 71.9509C117.264 71.8175 116.928 71.7508 116.55 71.7508C116.176 71.7508 115.839 71.8175 115.541 71.9509C115.246 72.0811 114.995 72.2653 114.789 72.5036C114.586 72.7386 114.43 73.0165 114.322 73.3373C114.214 73.6549 114.16 73.9996 114.16 74.3712ZM115.308 74.4808V74.3712C115.308 74.1425 115.332 73.9265 115.379 73.7232C115.427 73.5168 115.501 73.3341 115.603 73.1753C115.704 73.0165 115.833 72.8926 115.988 72.8037C116.147 72.7116 116.334 72.6655 116.55 72.6655C116.766 72.6655 116.952 72.7116 117.107 72.8037C117.266 72.8926 117.396 73.0165 117.498 73.1753C117.602 73.3341 117.678 73.5168 117.726 73.7232C117.777 73.9265 117.802 74.1425 117.802 74.3712V74.4808C117.802 74.7126 117.777 74.9318 117.726 75.1382C117.678 75.3447 117.604 75.5257 117.502 75.6814C117.401 75.837 117.271 75.9593 117.112 76.0482C116.956 76.1372 116.772 76.1816 116.56 76.1816C116.341 76.1816 116.152 76.1372 115.993 76.0482C115.835 75.9593 115.704 75.837 115.603 75.6814C115.501 75.5257 115.427 75.3447 115.379 75.1382C115.332 74.9318 115.308 74.7126 115.308 74.4808Z" fill="#0085BA"/>
<path d="M121.063 73.4777V77.0011H119.916V71.8461H121.011L121.043 72.4516C121.05 72.4403 121.056 72.429 121.063 72.4178C121.193 72.2082 121.355 72.0446 121.549 71.9271C121.746 71.8095 121.973 71.7508 122.23 71.7508C122.299 71.7508 122.374 71.7571 122.453 71.7698C122.536 71.7825 122.598 71.7968 122.639 71.8127L122.629 72.8799C122.56 72.8672 122.484 72.8577 122.401 72.8513C122.322 72.845 122.242 72.8418 122.163 72.8418C121.966 72.8418 121.793 72.8704 121.644 72.9276C121.495 72.9816 121.37 73.061 121.268 73.1658C121.183 73.2533 121.115 73.3573 121.063 73.4777Z" fill="#0085BA"/>
<path d="M125.957 72.6846V71.8461H125.038V70.5835H123.891V71.8461H123.053V72.6846H123.891V75.648C123.891 76.0006 123.948 76.2833 124.062 76.4961C124.177 76.7089 124.335 76.8629 124.538 76.9582C124.742 77.0503 124.975 77.0964 125.238 77.0964C125.4 77.0964 125.543 77.0853 125.667 77.063C125.794 77.0408 125.905 77.0154 126 76.9868L125.995 76.1102C125.951 76.1197 125.892 76.1292 125.819 76.1387C125.746 76.1483 125.67 76.153 125.591 76.153C125.48 76.153 125.383 76.1387 125.3 76.1102C125.218 76.0816 125.153 76.026 125.105 75.9434C125.061 75.8576 125.038 75.7354 125.038 75.5766V72.6846H125.957Z" fill="#0085BA"/>
<path d="M65.3729 64.2623C65.3729 73.2437 58.0978 80.5246 49.1234 80.5246C40.1491 80.5246 32.874 73.2437 32.874 64.2623C32.874 55.2809 40.1491 48 49.1234 48C58.0978 48 65.3729 55.2809 65.3729 64.2623Z" fill="#0085BA"/>
<path d="M52.7344 64.9851L49.1234 69.5024L45.5124 64.9851H48.2207V55.047H50.0262V64.9851H52.7344Z" fill="white"/>
<path d="M51.8317 61.3712H55.4427C56.4384 61.3712 57.2482 62.1816 57.2482 63.1781V71.3093C57.2482 72.3058 56.4384 73.1162 55.4427 73.1162H42.8042C41.8085 73.1162 40.9987 72.3058 40.9987 71.3093V63.1781C40.9987 62.1816 41.8085 61.3712 42.8042 61.3712H46.4152V63.1781H42.8042V71.3093H55.4427V63.1781H51.8317V61.3712Z" fill="white"/>
</svg>
